<mxfile host="app.diagrams.net" agent="Mozilla/5.0 (Windows NT 10.0; Win64; x64) AppleWebKit/537.36 (KHTML, like Gecko) Chrome/134.0.0.0 Safari/537.36" version="26.1.2">
  <diagram name="Página-1" id="Gj5CzNFe3FowefkB-zvI">
    <mxGraphModel grid="1" page="1" gridSize="10" guides="1" tooltips="1" connect="1" arrows="1" fold="1" pageScale="1" pageWidth="827" pageHeight="1169" math="0" shadow="0">
      <root>
        <mxCell id="0" />
        <mxCell id="1" parent="0" />
        <mxCell id="-QoFJ7MT6iAQllHARsJ3-2" value="" style="strokeWidth=2;html=1;shape=mxgraph.flowchart.start_1;whiteSpace=wrap;fillColor=#ffe6cc;strokeColor=#d79b00;" vertex="1" parent="1">
          <mxGeometry x="140" y="90" width="266.67" height="160" as="geometry" />
        </mxCell>
        <mxCell id="-QoFJ7MT6iAQllHARsJ3-6" value="&lt;div&gt;&lt;font style=&quot;font-size: 16px;&quot;&gt;&lt;b&gt;&lt;br&gt;&lt;/b&gt;&lt;/font&gt;&lt;/div&gt;&lt;font style=&quot;font-size: 16px;&quot;&gt;&lt;b&gt;&lt;div&gt;&lt;font style=&quot;font-size: 16px;&quot;&gt;&lt;b&gt;&lt;br&gt;&lt;/b&gt;&lt;/font&gt;&lt;/div&gt;Carrefour Database&lt;/b&gt;&lt;/font&gt;" style="strokeWidth=2;html=1;shape=mxgraph.flowchart.database;whiteSpace=wrap;fillColor=#dae8fc;strokeColor=#6c8ebf;" vertex="1" parent="1">
          <mxGeometry x="580" y="460" width="180" height="180" as="geometry" />
        </mxCell>
        <mxCell id="-QoFJ7MT6iAQllHARsJ3-9" value="&lt;h1 style=&quot;margin-top: 0px;&quot;&gt;[Get]&amp;nbsp;/DailyEntries&lt;/h1&gt;&lt;div&gt;&lt;span style=&quot;background-color: transparent; color: light-dark(rgb(0, 0, 0), rgb(255, 255, 255));&quot;&gt;Api que retorna as entrada diarias&lt;/span&gt;&lt;/div&gt;" style="text;html=1;whiteSpace=wrap;overflow=hidden;rounded=0;" vertex="1" parent="1">
          <mxGeometry x="170" y="130" width="270" height="125" as="geometry" />
        </mxCell>
        <mxCell id="-QoFJ7MT6iAQllHARsJ3-13" value="" style="rounded=1;whiteSpace=wrap;html=1;absoluteArcSize=1;arcSize=14;strokeWidth=2;fillColor=#ffe6cc;strokeColor=#d79b00;" vertex="1" parent="1">
          <mxGeometry x="190" y="460" width="170" height="170" as="geometry" />
        </mxCell>
        <mxCell id="-QoFJ7MT6iAQllHARsJ3-14" value="&lt;b&gt;Retorna entradas diarias com os dados da paginação&lt;/b&gt;" style="text;html=1;align=center;verticalAlign=middle;whiteSpace=wrap;rounded=0;" vertex="1" parent="1">
          <mxGeometry x="100" y="830" width="160" height="50" as="geometry" />
        </mxCell>
        <mxCell id="-QoFJ7MT6iAQllHARsJ3-15" value="" style="endArrow=classic;html=1;rounded=0;exitX=0.5;exitY=1;exitDx=0;exitDy=0;exitPerimeter=0;entryX=0.5;entryY=0;entryDx=0;entryDy=0;" edge="1" parent="1" source="-QoFJ7MT6iAQllHARsJ3-2" target="-QoFJ7MT6iAQllHARsJ3-13">
          <mxGeometry width="50" height="50" relative="1" as="geometry">
            <mxPoint x="480" y="580" as="sourcePoint" />
            <mxPoint x="530" y="530" as="targetPoint" />
          </mxGeometry>
        </mxCell>
        <mxCell id="-QoFJ7MT6iAQllHARsJ3-16" value="" style="endArrow=classic;html=1;rounded=0;exitX=0.5;exitY=1;exitDx=0;exitDy=0;entryX=0.5;entryY=0;entryDx=0;entryDy=0;entryPerimeter=0;" edge="1" parent="1" source="-QoFJ7MT6iAQllHARsJ3-13">
          <mxGeometry width="50" height="50" relative="1" as="geometry">
            <mxPoint x="390" y="570" as="sourcePoint" />
            <mxPoint x="275" y="950" as="targetPoint" />
          </mxGeometry>
        </mxCell>
        <mxCell id="-QoFJ7MT6iAQllHARsJ3-17" value="&lt;b&gt;Envia dados para solicitação da paginação&lt;/b&gt;" style="text;html=1;align=center;verticalAlign=middle;whiteSpace=wrap;rounded=0;" vertex="1" parent="1">
          <mxGeometry x="110" y="280" width="160" height="50" as="geometry" />
        </mxCell>
        <mxCell id="-QoFJ7MT6iAQllHARsJ3-18" value="" style="endArrow=classic;startArrow=classic;html=1;rounded=0;exitX=1;exitY=0.5;exitDx=0;exitDy=0;" edge="1" parent="1" source="-QoFJ7MT6iAQllHARsJ3-13" target="-QoFJ7MT6iAQllHARsJ3-6">
          <mxGeometry width="50" height="50" relative="1" as="geometry">
            <mxPoint x="390" y="570" as="sourcePoint" />
            <mxPoint x="440" y="520" as="targetPoint" />
          </mxGeometry>
        </mxCell>
        <mxCell id="-QoFJ7MT6iAQllHARsJ3-19" value="&lt;b&gt;&lt;font style=&quot;font-size: 16px;&quot;&gt;CashEntryService&lt;/font&gt;&lt;/b&gt;" style="text;html=1;align=center;verticalAlign=middle;whiteSpace=wrap;rounded=0;" vertex="1" parent="1">
          <mxGeometry x="198.34" y="510" width="150" height="70" as="geometry" />
        </mxCell>
        <mxCell id="-QoFJ7MT6iAQllHARsJ3-21" value="&lt;b&gt;Seleciona dados de entradas do dia conforme a paginação&lt;/b&gt;" style="text;html=1;align=center;verticalAlign=middle;whiteSpace=wrap;rounded=0;" vertex="1" parent="1">
          <mxGeometry x="380" y="490" width="160" height="50" as="geometry" />
        </mxCell>
        <mxCell id="g7xFW6bF_PayoMMCG8ed-2" value="&lt;pre class=&quot;curl microlight&quot; style=&quot;box-sizing: border-box; font-family: monospace; font-size: 12px; white-space: pre-wrap; overflow-wrap: break-word; background: rgb(51, 51, 51); border-radius: 4px; color: white; font-weight: 600; hyphens: auto; margin: 0px; padding: 0.5em; word-break: break-word; font-style: normal; font-variant-ligatures: normal; font-variant-caps: normal; letter-spacing: normal; orphans: 2; text-align: start; text-indent: 0px; text-transform: none; widows: 2; word-spacing: 0px; -webkit-text-stroke-width: 0px; text-decoration-thickness: initial; text-decoration-style: initial; text-decoration-color: initial; display: block; overflow-x: auto;&quot;&gt;&lt;code class=&quot;language-bash&quot; style=&quot;box-sizing: border-box; font-family: Consolas, monaco, monospace; font-size: 1em; white-space: pre;&quot;&gt;&lt;span style=&quot;box-sizing: inherit;&quot;&gt;curl -X &lt;/span&gt;&lt;span style=&quot;box-sizing: inherit; color: rgb(162, 252, 162);&quot;&gt;&#39;GET&#39;&lt;/span&gt;&lt;span style=&quot;box-sizing: inherit;&quot;&gt; \&#xa;&lt;/span&gt;&lt;span style=&quot;box-sizing: inherit;&quot;&gt;  &lt;/span&gt;&lt;span style=&quot;box-sizing: inherit; color: rgb(162, 252, 162);&quot;&gt;&#39;http://localhost:5150/DailyEntries?PageNumber=1&amp;amp;PageSize=2&amp;amp;OrderBy=value%20desc&#39;&lt;/span&gt;&lt;span style=&quot;box-sizing: inherit;&quot;&gt; \&#xa;&lt;/span&gt;&lt;span style=&quot;box-sizing: inherit;&quot;&gt;  -H &lt;/span&gt;&lt;span style=&quot;box-sizing: inherit; color: rgb(162, 252, 162);&quot;&gt;&#39;accept: */*&#39;&lt;/span&gt;&lt;/code&gt;&lt;/pre&gt;" style="text;whiteSpace=wrap;html=1;" vertex="1" parent="1">
          <mxGeometry x="170" y="330" width="560" height="90" as="geometry" />
        </mxCell>
        <mxCell id="g7xFW6bF_PayoMMCG8ed-3" value="&lt;pre class=&quot;microlight&quot; style=&quot;box-sizing: border-box; font-family: monospace; font-size: 12px; max-height: 400px; min-height: 6em; overflow: auto; overflow-wrap: break-word; background: rgb(51, 51, 51); border-radius: 4px; color: white; font-weight: 600; hyphens: auto; margin: 0px; padding: 0.5em; white-space: pre-wrap; word-break: break-word; font-style: normal; font-variant-ligatures: normal; font-variant-caps: normal; letter-spacing: normal; orphans: 2; text-align: start; text-indent: 0px; text-transform: none; widows: 2; word-spacing: 0px; -webkit-text-stroke-width: 0px; text-decoration-thickness: initial; text-decoration-style: initial; text-decoration-color: initial; display: block;&quot;&gt;&lt;code class=&quot;language-json&quot; style=&quot;box-sizing: border-box; font-family: Consolas, monaco, monospace; font-size: 1em; word-break: break-all; white-space: pre;&quot;&gt;&lt;span style=&quot;box-sizing: inherit;&quot;&gt;{&#xa;&lt;/span&gt;&lt;span style=&quot;box-sizing: inherit;&quot;&gt;  &lt;/span&gt;&lt;span class=&quot;hljs-attr&quot; style=&quot;box-sizing: inherit;&quot;&gt;&quot;data&quot;&lt;/span&gt;&lt;span style=&quot;box-sizing: inherit;&quot;&gt;: [&#xa;&lt;/span&gt;    {&#xa;&lt;span style=&quot;box-sizing: inherit;&quot;&gt;      &lt;/span&gt;&lt;span class=&quot;hljs-attr&quot; style=&quot;box-sizing: inherit;&quot;&gt;&quot;id&quot;&lt;/span&gt;&lt;span style=&quot;box-sizing: inherit;&quot;&gt;: &lt;/span&gt;&lt;span style=&quot;box-sizing: inherit; color: rgb(162, 252, 162);&quot;&gt;&quot;f7ea9028-0d1a-4157-fd10-08dd6ba3d189&quot;&lt;/span&gt;&lt;span style=&quot;box-sizing: inherit;&quot;&gt;,&#xa;&lt;/span&gt;&lt;span style=&quot;box-sizing: inherit;&quot;&gt;      &lt;/span&gt;&lt;span class=&quot;hljs-attr&quot; style=&quot;box-sizing: inherit;&quot;&gt;&quot;value&quot;&lt;/span&gt;&lt;span style=&quot;box-sizing: inherit;&quot;&gt;: &lt;/span&gt;&lt;span style=&quot;box-sizing: inherit; color: rgb(211, 99, 99);&quot;&gt;972.52&lt;/span&gt;&lt;span style=&quot;box-sizing: inherit;&quot;&gt;,&#xa;&lt;/span&gt;&lt;span style=&quot;box-sizing: inherit;&quot;&gt;      &lt;/span&gt;&lt;span class=&quot;hljs-attr&quot; style=&quot;box-sizing: inherit;&quot;&gt;&quot;dateCreated&quot;&lt;/span&gt;&lt;span style=&quot;box-sizing: inherit;&quot;&gt;: &lt;/span&gt;&lt;span style=&quot;box-sizing: inherit; color: rgb(162, 252, 162);&quot;&gt;&quot;2025-03-25T10:49:09.5183835&quot;&lt;/span&gt;&lt;span style=&quot;box-sizing: inherit;&quot;&gt;,&#xa;&lt;/span&gt;&lt;span style=&quot;box-sizing: inherit;&quot;&gt;      &lt;/span&gt;&lt;span class=&quot;hljs-attr&quot; style=&quot;box-sizing: inherit;&quot;&gt;&quot;entryType&quot;&lt;/span&gt;&lt;span style=&quot;box-sizing: inherit;&quot;&gt;: &lt;/span&gt;&lt;span style=&quot;box-sizing: inherit; color: rgb(211, 99, 99);&quot;&gt;1&lt;/span&gt;&lt;span style=&quot;box-sizing: inherit;&quot;&gt;,&#xa;&lt;/span&gt;&lt;span style=&quot;box-sizing: inherit;&quot;&gt;      &lt;/span&gt;&lt;span class=&quot;hljs-attr&quot; style=&quot;box-sizing: inherit;&quot;&gt;&quot;transactionType&quot;&lt;/span&gt;&lt;span style=&quot;box-sizing: inherit;&quot;&gt;: &lt;/span&gt;&lt;span style=&quot;box-sizing: inherit; color: rgb(211, 99, 99);&quot;&gt;4&lt;/span&gt;&lt;span style=&quot;box-sizing: inherit;&quot;&gt;&#xa;&lt;/span&gt;    },&#xa;    {&#xa;&lt;span style=&quot;box-sizing: inherit;&quot;&gt;      &lt;/span&gt;&lt;span class=&quot;hljs-attr&quot; style=&quot;box-sizing: inherit;&quot;&gt;&quot;id&quot;&lt;/span&gt;&lt;span style=&quot;box-sizing: inherit;&quot;&gt;: &lt;/span&gt;&lt;span style=&quot;box-sizing: inherit; color: rgb(162, 252, 162);&quot;&gt;&quot;0ea940f4-7322-4d6a-fd11-08dd6ba3d189&quot;&lt;/span&gt;&lt;span style=&quot;box-sizing: inherit;&quot;&gt;,&#xa;&lt;/span&gt;&lt;span style=&quot;box-sizing: inherit;&quot;&gt;      &lt;/span&gt;&lt;span class=&quot;hljs-attr&quot; style=&quot;box-sizing: inherit;&quot;&gt;&quot;value&quot;&lt;/span&gt;&lt;span style=&quot;box-sizing: inherit;&quot;&gt;: &lt;/span&gt;&lt;span style=&quot;box-sizing: inherit; color: rgb(211, 99, 99);&quot;&gt;972.52&lt;/span&gt;&lt;span style=&quot;box-sizing: inherit;&quot;&gt;,&#xa;&lt;/span&gt;&lt;span style=&quot;box-sizing: inherit;&quot;&gt;      &lt;/span&gt;&lt;span class=&quot;hljs-attr&quot; style=&quot;box-sizing: inherit;&quot;&gt;&quot;dateCreated&quot;&lt;/span&gt;&lt;span style=&quot;box-sizing: inherit;&quot;&gt;: &lt;/span&gt;&lt;span style=&quot;box-sizing: inherit; color: rgb(162, 252, 162);&quot;&gt;&quot;2025-03-25T10:49:10.3244917&quot;&lt;/span&gt;&lt;span style=&quot;box-sizing: inherit;&quot;&gt;,&#xa;&lt;/span&gt;&lt;span style=&quot;box-sizing: inherit;&quot;&gt;      &lt;/span&gt;&lt;span class=&quot;hljs-attr&quot; style=&quot;box-sizing: inherit;&quot;&gt;&quot;entryType&quot;&lt;/span&gt;&lt;span style=&quot;box-sizing: inherit;&quot;&gt;: &lt;/span&gt;&lt;span style=&quot;box-sizing: inherit; color: rgb(211, 99, 99);&quot;&gt;1&lt;/span&gt;&lt;span style=&quot;box-sizing: inherit;&quot;&gt;,&#xa;&lt;/span&gt;&lt;span style=&quot;box-sizing: inherit;&quot;&gt;      &lt;/span&gt;&lt;span class=&quot;hljs-attr&quot; style=&quot;box-sizing: inherit;&quot;&gt;&quot;transactionType&quot;&lt;/span&gt;&lt;span style=&quot;box-sizing: inherit;&quot;&gt;: &lt;/span&gt;&lt;span style=&quot;box-sizing: inherit; color: rgb(211, 99, 99);&quot;&gt;4&lt;/span&gt;&lt;span style=&quot;box-sizing: inherit;&quot;&gt;&#xa;&lt;/span&gt;    }&#xa;  ],&#xa;&lt;span style=&quot;box-sizing: inherit;&quot;&gt;  &lt;/span&gt;&lt;span class=&quot;hljs-attr&quot; style=&quot;box-sizing: inherit;&quot;&gt;&quot;currentPage&quot;&lt;/span&gt;&lt;span style=&quot;box-sizing: inherit;&quot;&gt;: &lt;/span&gt;&lt;span style=&quot;box-sizing: inherit; color: rgb(211, 99, 99);&quot;&gt;1&lt;/span&gt;&lt;span style=&quot;box-sizing: inherit;&quot;&gt;,&#xa;&lt;/span&gt;&lt;span style=&quot;box-sizing: inherit;&quot;&gt;  &lt;/span&gt;&lt;span class=&quot;hljs-attr&quot; style=&quot;box-sizing: inherit;&quot;&gt;&quot;pageSize&quot;&lt;/span&gt;&lt;span style=&quot;box-sizing: inherit;&quot;&gt;: &lt;/span&gt;&lt;span style=&quot;box-sizing: inherit; color: rgb(211, 99, 99);&quot;&gt;2&lt;/span&gt;&lt;span style=&quot;box-sizing: inherit;&quot;&gt;,&#xa;&lt;/span&gt;&lt;span style=&quot;box-sizing: inherit;&quot;&gt;  &lt;/span&gt;&lt;span class=&quot;hljs-attr&quot; style=&quot;box-sizing: inherit;&quot;&gt;&quot;totalPages&quot;&lt;/span&gt;&lt;span style=&quot;box-sizing: inherit;&quot;&gt;: &lt;/span&gt;&lt;span style=&quot;box-sizing: inherit; color: rgb(211, 99, 99);&quot;&gt;26&lt;/span&gt;&lt;span style=&quot;box-sizing: inherit;&quot;&gt;,&#xa;&lt;/span&gt;&lt;span style=&quot;box-sizing: inherit;&quot;&gt;  &lt;/span&gt;&lt;span class=&quot;hljs-attr&quot; style=&quot;box-sizing: inherit;&quot;&gt;&quot;totalCount&quot;&lt;/span&gt;&lt;span style=&quot;box-sizing: inherit;&quot;&gt;: &lt;/span&gt;&lt;span style=&quot;box-sizing: inherit; color: rgb(211, 99, 99);&quot;&gt;52&lt;/span&gt;&lt;span style=&quot;box-sizing: inherit;&quot;&gt;&#xa;&lt;/span&gt;}&lt;/code&gt;&lt;/pre&gt;" style="text;whiteSpace=wrap;html=1;" vertex="1" parent="1">
          <mxGeometry x="400" y="760" width="380" height="350" as="geometry" />
        </mxCell>
        <mxCell id="g7xFW6bF_PayoMMCG8ed-4" value="" style="strokeWidth=2;html=1;shape=mxgraph.flowchart.multi-document;whiteSpace=wrap;fillColor=#ffe6cc;strokeColor=#d79b00;" vertex="1" parent="1">
          <mxGeometry x="184.17000000000002" y="950" width="181.66" height="150" as="geometry" />
        </mxCell>
        <mxCell id="g7xFW6bF_PayoMMCG8ed-5" value="&lt;b&gt;&lt;font style=&quot;font-size: 18px;&quot;&gt;Entradas Diarias&lt;/font&gt;&lt;/b&gt;" style="text;html=1;align=center;verticalAlign=middle;whiteSpace=wrap;rounded=0;" vertex="1" parent="1">
          <mxGeometry x="184.17000000000002" y="1010" width="160" height="30" as="geometry" />
        </mxCell>
      </root>
    </mxGraphModel>
  </diagram>
</mxfile>
